<svg id="Слой_1" data-name="Слой 1" xmlns="http://www.w3.org/2000/svg" viewBox="0 0 51.46 36.79">
  <defs>
    <style>
      .cls-1 {
        fill: #e8dd0c;
      }

      .cls-2 {
        fill: #0aeabf;
      }

      .cls-3 {
        fill: #ec2b3f;
      }
    </style>
  </defs>
  <title>contacts-icon</title>
  <path class="cls-1" d="M52.78,37.77A3.89,3.89,0,0,1,51,40.91,6.44,6.44,0,0,1,47.31,42H37.21a4.22,4.22,0,0,1-3.11-1.11,12.12,12.12,0,0,1-1.78-3.08L27.17,26.4a37.33,37.33,0,0,0,4.48-1.49,42.66,42.66,0,0,0,4.26-1.73q5.21-2.7,5.21-6.75c0-3.1-2.2-4.66-6.59-4.66H7.8l4.06-6.59H38.24q14.19,0,14.21,9.05,0,7.66-14.79,13.4l4.71,10.18ZM30.86,15.08,21.31,42H11.89l9.46-26.88Z" transform="translate(-1.32 -5.18)"/>
  <path class="cls-2" d="M49.78,37.77A3.89,3.89,0,0,1,48,40.91,6.44,6.44,0,0,1,44.31,42H34.21a4.22,4.22,0,0,1-3.11-1.11,11.83,11.83,0,0,1-1.78-3.08L24.17,26.4a37.33,37.33,0,0,0,4.48-1.49,43.65,43.65,0,0,0,4.26-1.73q5.21-2.7,5.21-6.75c0-3.1-2.2-4.66-6.6-4.66H4.8L8.86,5.18H35.23q14.21,0,14.21,9.05,0,7.66-14.78,13.4l4.71,10.18ZM27.85,15.08,18.3,42H8.89l9.46-26.88Z" transform="translate(-1.32 -5.18)"/>
  <path class="cls-3" d="M46.3,37.77a3.92,3.92,0,0,1-1.83,3.14A6.44,6.44,0,0,1,40.83,42H30.73a4.2,4.2,0,0,1-3.11-1.11,11.56,11.56,0,0,1-1.78-3.08L20.69,26.4a37.33,37.33,0,0,0,4.48-1.49,43.65,43.65,0,0,0,4.26-1.73q5.2-2.7,5.21-6.75c0-3.1-2.2-4.66-6.6-4.66H1.32L5.38,5.18H31.75Q46,5.18,46,14.23q0,7.66-14.78,13.4l4.71,10.18ZM24.37,15.08,14.82,42H5.4l9.47-26.88Z" transform="translate(-1.32 -5.18)"/>
</svg>
