<svg id="Слой_1" data-name="Слой 1" xmlns="http://www.w3.org/2000/svg" viewBox="0 0 55.37 45.34">
  <defs>
    <style>
      .cls-1 {
        fill: #ec2b3f;
      }
    </style>
  </defs>
  <title>logo-icon</title>
  <path class="cls-1" d="M57,47.94a4.79,4.79,0,0,1-2.25,3.87,7.88,7.88,0,0,1-4.48,1.29H37.83A5.19,5.19,0,0,1,34,51.74a14.42,14.42,0,0,1-2.19-3.8l-6.35-14a46,46,0,0,0,5.52-1.84,52,52,0,0,0,5.25-2.13q6.41-3.32,6.41-8.31,0-5.73-8.12-5.74H1.61l5-8.12H39.09q17.49,0,17.5,11.15,0,9.45-18.21,16.5l5.8,12.54ZM30,20,18.24,53.1H6.64L18.3,20Z" transform="translate(-1.61 -7.75)"/>
</svg>
