<svg id="Слой_1" data-name="Слой 1" xmlns="http://www.w3.org/2000/svg" viewBox="0 0 46.82 8.23">
  <defs>
    <style>
      .cls-1 {
        fill: #dbdbdb;
      }

      .cls-2 {
        fill: #ec2b3f;
      }
    </style>
  </defs>
  <title>logo</title>
  <g>
    <path class="cls-1" d="M9.55,8a.81.81,0,0,1-.37.65,1.37,1.37,0,0,1-.75.21H6.36a.84.84,0,0,1-.64-.22A2.42,2.42,0,0,1,5.35,8L4.29,5.63a6.7,6.7,0,0,0,.92-.31C5.68,5.15,6,5,6.09,5c.71-.37,1.07-.83,1.07-1.39s-.45-1-1.36-1H.33l.83-1.36H6.57c1.95,0,2.92.62,2.92,1.86,0,1-1,2-3,2.75L7.42,8ZM5.06,3.32l-2,5.51H1.16l2-5.51Z" transform="translate(-0.33 -0.71)"/>
    <path class="cls-1" d="M16.3,8a1,1,0,0,1-.51.65,1.61,1.61,0,0,1-.82.21H12c-1.75,0-2.62-.52-2.62-1.57a1.8,1.8,0,0,1,.9-1.59,3.28,3.28,0,0,1,1.82-.49h.78a3.14,3.14,0,0,1,1.2.21,1,1,0,0,1,.72.85,1.05,1.05,0,0,1-.55,1H12.45L13,6H11.89l-.44,1.29a.88.88,0,0,0,0,.21c0,.29.23.43.69.43Z" transform="translate(-0.33 -0.71)"/>
    <path class="cls-1" d="M23.21,8a1.2,1.2,0,0,1-1.31.86h-2c-.58,0-.87-.18-.87-.56a1.83,1.83,0,0,1-1.44.67,1.38,1.38,0,0,1-1-.39,1.36,1.36,0,0,1-.39-1A2.08,2.08,0,0,1,17,5.77a3.12,3.12,0,0,1,1.93-.59H22L21,8ZM19.75,6H18.56l-.38,1.25a.88.88,0,0,0,0,.21c0,.32.31.47.91.47Z" transform="translate(-0.33 -0.71)"/>
    <path class="cls-1" d="M29.92,8a1.07,1.07,0,0,1-.49.65,1.52,1.52,0,0,1-.8.21H25.39a3.45,3.45,0,0,1-1.55-.31A1.26,1.26,0,0,1,23,7.34a1.1,1.1,0,0,1,0-.18,1.94,1.94,0,0,1,1-1.5,3.53,3.53,0,0,1,1.86-.48h1.35a1.12,1.12,0,0,1,.78.29.9.9,0,0,1,.32.71A1,1,0,0,1,28,6.9a1.16,1.16,0,0,1-.78.29,1.12,1.12,0,0,1-.77-.29,1,1,0,0,1-.32-.73V6h-.65L25.1,7.23a1,1,0,0,0-.05.27c0,.31.25.47.74.47Z" transform="translate(-0.33 -0.71)"/>
    <path class="cls-1" d="M34.62,8a1.22,1.22,0,0,1-1.34.86H30.54c-.53,0-.8-.18-.8-.56A.89.89,0,0,1,29.8,8L30.48,6H29.6l.34-.86a3.67,3.67,0,0,0,1.4-.62A5.1,5.1,0,0,0,32.44,3h1.05l-.76,2.15h1.39A1.33,1.33,0,0,1,32.76,6h-.35L31.74,8Z" transform="translate(-0.33 -0.71)"/>
    <path class="cls-2" d="M42.18,4.52a2.26,2.26,0,0,1-.16.9,1.89,1.89,0,0,1-.45.65,1.94,1.94,0,0,1-.68.4,2.71,2.71,0,0,1-.82.13h-.7V8.73l.09.1h-2l.09-.1V.81L37.5.71h2.57a2.71,2.71,0,0,1,.82.12,1.87,1.87,0,0,1,.68.37,1.72,1.72,0,0,1,.45.65,2.58,2.58,0,0,1,.16,1ZM40.41,2.7a.33.33,0,0,0-.1-.24.35.35,0,0,0-.24-.1h-.7V5h.7a.31.31,0,0,0,.24-.1.33.33,0,0,0,.1-.25Z" transform="translate(-0.33 -0.71)"/>
    <path class="cls-2" d="M44.91,6.72A.3.3,0,0,0,45,7a.32.32,0,0,0,.25.1h1.88V8.83H45.26a2,2,0,0,1-.82-.16,2.12,2.12,0,0,1-.68-.45,2.15,2.15,0,0,1-.46-.68,2,2,0,0,1-.16-.82V2.84A2.08,2.08,0,0,1,43.3,2a2.27,2.27,0,0,1,.46-.68,2.12,2.12,0,0,1,.68-.45,2,2,0,0,1,.82-.17h1.79V2.48H45.26a.36.36,0,0,0-.25.1.34.34,0,0,0-.1.26Z" transform="translate(-0.33 -0.71)"/>
  </g>
</svg>
