<svg id="Слой_1" data-name="Слой 1" xmlns="http://www.w3.org/2000/svg" viewBox="0 0 59.35 10.44">
  <defs>
    <style>
      .cls-1 {
        fill: #afafaf;
      }

      .cls-2 {
        fill: #ec2b3f;
      }
    </style>
  </defs>
  <title>logo-light-version</title>
  <g>
    <path class="cls-1" d="M11.71,9.24a1,1,0,0,1-.48.82,1.7,1.7,0,0,1-1,.27H7.71a1.08,1.08,0,0,1-.84-.3,2.86,2.86,0,0,1-.47-.81l-1.34-3a12.15,12.15,0,0,0,1.16-.39,11.9,11.9,0,0,0,1.12-.45c.91-.43,1.37-1,1.37-1.72S8.13,2.44,7,2.44H0L1.07.72H8c2.48,0,3.72.78,3.72,2.36,0,1.34-1.29,2.5-3.87,3.5L9,9.24ZM6,3.32l-2.5,7H1.07l2.47-7Z" transform="translate(0.02 -0.03)"/>
    <path class="cls-1" d="M20.34,9.24a1.31,1.31,0,0,1-.63.79,2,2,0,0,1-1,.26H14.83c-2.21,0-3.32-.66-3.32-2a2.28,2.28,0,0,1,1.13-2A4.26,4.26,0,0,1,15,5.66h1a3.93,3.93,0,0,1,1.52.26A1.25,1.25,0,0,1,18.4,7a1.35,1.35,0,0,1-.69,1.22H15.43l.74-1.47H14.71l-.54,1.65a.75.75,0,0,0-.05.26c0,.37.3.55.89.55Z" transform="translate(0.02 -0.03)"/>
    <path class="cls-1" d="M29.13,9.24a1.54,1.54,0,0,1-1.67,1.09H24.87c-.74,0-1.11-.23-1.11-.71a2.31,2.31,0,0,1-1.83.85,1.7,1.7,0,0,1-1.8-1.59V8.69a2.66,2.66,0,0,1,1.09-2.25,4,4,0,0,1,2.49-.75h3.9L26.32,9.24ZM24.71,6.78h-1.5l-.5,1.59a1.31,1.31,0,0,0,0,.28c0,.39.39.59,1.16.59Z" transform="translate(0.02 -0.03)"/>
    <path class="cls-1" d="M37.71,9.24a1.35,1.35,0,0,1-.63.83,1.85,1.85,0,0,1-1,.26H31.91a4.44,4.44,0,0,1-2-.39,1.61,1.61,0,0,1-1-1.51V8.21a2.49,2.49,0,0,1,1.3-1.92,4.5,4.5,0,0,1,2.35-.6h1.73a1.41,1.41,0,0,1,1,.37,1.19,1.19,0,0,1,0,1.81,1.48,1.48,0,0,1-2,0,1.18,1.18,0,0,1-.4-.93V6.78h-.83l-.53,1.51a1,1,0,0,0-.07.35c0,.4.32.6.95.6Z" transform="translate(0.02 -0.03)"/>
    <path class="cls-1" d="M43.65,9.24a1.55,1.55,0,0,1-1.71,1.09H38.46c-.68,0-1-.23-1-.71a1.23,1.23,0,0,1,.08-.38l.87-2.46H37.27l.44-1.09a4.49,4.49,0,0,0,1.77-.79,6.54,6.54,0,0,0,1.41-2h1.32l-1,2.75H43a1.67,1.67,0,0,1-1.72,1.09h-.45L40,9.2Z" transform="translate(0.02 -0.03)"/>
    <path class="cls-2" d="M53,4.85A3,3,0,0,1,52.81,6a2.31,2.31,0,0,1-.58.83,2.15,2.15,0,0,1-.85.5,2.89,2.89,0,0,1-1.05.17h-.9v2.72l.13.12H47.05l.13-.12V.13L47.05,0h3.28a3.7,3.7,0,0,1,1.05.15,2.09,2.09,0,0,1,.85.47,2.09,2.09,0,0,1,.58.83A3.3,3.3,0,0,1,53,2.72ZM50.76,2.54a.43.43,0,0,0-.12-.31.44.44,0,0,0-.31-.13h-.9V5.39h.9a.45.45,0,0,0,.31-.12.5.5,0,0,0,.12-.33Z" transform="translate(0.02 -0.03)"/>
    <path class="cls-2" d="M56.49,7.65a.39.39,0,0,0,.13.3.39.39,0,0,0,.32.13h2.39v2.25H56.94a2.73,2.73,0,0,1-1.86-.78,2.62,2.62,0,0,1-.58-.85,2.38,2.38,0,0,1-.21-1V2.7a2.49,2.49,0,0,1,.21-1A2.72,2.72,0,0,1,55.94.26a2.49,2.49,0,0,1,1-.21h2.28V2.26H56.94a.47.47,0,0,0-.32.12.42.42,0,0,0-.13.32Z" transform="translate(0.02 -0.03)"/>
  </g>
</svg>
