<svg id="Слой_1" data-name="Слой 1" xmlns="http://www.w3.org/2000/svg" viewBox="0 0 59.33 10.47">
  <defs>
    <style>
      .cls-1 {
        fill: #dbdbdb;
      }

      .cls-2 {
        fill: #ec2b3f;
      }
    </style>
  </defs>
  <title>logo2</title>
  <g>
    <path class="cls-1" d="M12,10.21a1,1,0,0,1-.48.82,1.68,1.68,0,0,1-1,.27H8A1.09,1.09,0,0,1,7.16,11a3,3,0,0,1-.47-.81l-1.34-3a9.85,9.85,0,0,0,1.16-.39,11.74,11.74,0,0,0,1.12-.45C8.54,5.92,9,5.33,9,4.63S8.42,3.41,7.27,3.41h-7L1.36,1.69H8.24c2.48,0,3.72.78,3.72,2.36,0,1.34-1.29,2.5-3.87,3.5l1.23,2.66ZM6.32,4.29l-2.5,7H1.36l2.47-7Z" transform="translate(-0.29 -0.97)"/>
    <path class="cls-1" d="M20.63,10.21A1.32,1.32,0,0,1,20,11a2,2,0,0,1-1,.26H15.12c-2.21,0-3.32-.66-3.32-2a2.27,2.27,0,0,1,1.13-2,4.23,4.23,0,0,1,2.33-.63h1a3.94,3.94,0,0,1,1.52.26A1.25,1.25,0,0,1,18.69,8,1.35,1.35,0,0,1,18,9.22H15.72l.74-1.47H15L14.46,9.4a.85.85,0,0,0-.05.26c0,.37.3.55.89.55Z" transform="translate(-0.29 -0.97)"/>
    <path class="cls-1" d="M29.42,10.21a1.54,1.54,0,0,1-1.67,1.09H25.16c-.74,0-1.11-.23-1.11-.71a2.34,2.34,0,0,1-1.83.85,1.7,1.7,0,0,1-1.8-1.78,2.66,2.66,0,0,1,1.09-2.25A4,4,0,0,1,24,6.66h3.9l-1.29,3.55ZM25,7.75H23.5L23,9.34a1.45,1.45,0,0,0,0,.28c0,.39.39.59,1.16.59Z" transform="translate(-0.29 -0.97)"/>
    <path class="cls-1" d="M38,10.21a1.38,1.38,0,0,1-.63.83,1.89,1.89,0,0,1-1,.26H32.2a4.48,4.48,0,0,1-2-.39,1.61,1.61,0,0,1-1-1.51,1.7,1.7,0,0,1,0-.22A2.49,2.49,0,0,1,30.5,7.26a4.46,4.46,0,0,1,2.35-.6h1.73a1.43,1.43,0,0,1,1,.37,1.16,1.16,0,0,1,.41.9,1.17,1.17,0,0,1-.42.91,1.47,1.47,0,0,1-2,0,1.18,1.18,0,0,1-.4-.93V7.75h-.83l-.53,1.51a1,1,0,0,0-.07.35c0,.4.32.6.95.6Z" transform="translate(-0.29 -0.97)"/>
    <path class="cls-1" d="M43.94,10.21a1.55,1.55,0,0,1-1.71,1.09H38.75c-.68,0-1-.23-1-.71a1.18,1.18,0,0,1,.08-.38l.87-2.46H37.56L38,6.66a4.58,4.58,0,0,0,1.77-.79,6.46,6.46,0,0,0,1.41-2H42.5l-1,2.75H43.3a1.68,1.68,0,0,1-1.72,1.09h-.45l-.86,2.46Z" transform="translate(-0.29 -0.97)"/>
    <path class="cls-2" d="M53.31,5.82A2.86,2.86,0,0,1,53.1,7a2.26,2.26,0,0,1-.58.83,2.33,2.33,0,0,1-.85.5,3,3,0,0,1-1.05.17h-.9v2.72l.13.12H47.34l.13-.12V1.1L47.34,1h3.28a3.6,3.6,0,0,1,1.05.15,2.14,2.14,0,0,1,.85.47,2.1,2.1,0,0,1,.58.83,3.25,3.25,0,0,1,.21,1.24ZM51.05,3.51a.43.43,0,0,0-.12-.31.42.42,0,0,0-.31-.13h-.9V6.36h.9a.45.45,0,0,0,.31-.12.48.48,0,0,0,.12-.33Z" transform="translate(-0.29 -0.97)"/>
    <path class="cls-2" d="M56.78,8.62a.38.38,0,0,0,.13.3.41.41,0,0,0,.32.13h2.39V11.3H57.23a2.59,2.59,0,0,1-1-.21,2.54,2.54,0,0,1-.86-.57,2.62,2.62,0,0,1-.58-.85,2.5,2.5,0,0,1-.21-1.05V3.67a2.5,2.5,0,0,1,.21-1,2.78,2.78,0,0,1,.58-.86,2.72,2.72,0,0,1,.86-.58,2.59,2.59,0,0,1,1-.21h2.28V3.23H57.23a.44.44,0,0,0-.32.12.42.42,0,0,0-.13.32Z" transform="translate(-0.29 -0.97)"/>
  </g>
</svg>
